<?xml version="1.0" encoding="UTF-8"?>
<svg xmlns="http://www.w3.org/2000/svg" viewBox="0 0 2901.36 1750.58">
  <g style="isolation: isolate;">
    <g id="Plate_Bot" data-name="Layer 1">
      <g>
        <g id="plate">
          <path d="m2851.83,1283.37c0,253.36-627.32,458.74-1401.15,458.74S49.53,1536.73,49.53,1283.37s627.32-458.72,1401.15-458.72,1401.15,205.36,1401.15,458.72Z" style="stroke: #5e2c00; stroke-linecap: round; stroke-linejoin: round; stroke-width: 16.94px;"/>
          <path d="m2892.9,1226.79c0,257.79-645.71,466.8-1442.21,466.8S8.47,1484.58,8.47,1226.79s645.7-466.81,1442.21-466.81,1442.21,209,1442.21,466.81Z" style="stroke: #5e2c00; stroke-linecap: round; stroke-linejoin: round; stroke-width: 16.94px;"/>
          <path d="m2684.47,984.94c94.16,60.09,147.58,128.01,147.58,200.02,0,244.61-612.74,442.93-1368.55,442.93S94.93,1429.57,94.93,1184.96c0-103.32,109.54-198.27,292.67-273.6C152.19,994.43,8.47,1105.16,8.47,1226.79c0,257.79,645.7,466.8,1442.21,466.8s1442.21-209,1442.21-466.8c0-88.55-76.16-171.33-208.42-241.85Z" style="mix-blend-mode: multiply; stroke-width: 0px;"/>
          <path d="m2328.85,1226.79c0,156.97-393.18,284.22-878.17,284.22s-878.17-127.25-878.17-284.22,393.18-284.24,878.17-284.24,878.17,127.25,878.17,284.24Z" style="mix-blend-mode: multiply; opacity: .6; stroke-width: 0px;"/>
          <g>
            <path d="m444.63,934.25c-90.48,21.39-176.83,52.15-241.4,121.63-57.26,61.64-58.22,168.37,20.19,211.63,25.4,14.02,72.99-22.71,58.85-51.14-27.16-54.61-62.98-88.6-21.17-150.32,42.09-62.12,116.96-90.39,184.08-115.38,9.36-3.49,12.85-19.6-.55-16.42Z" style="mix-blend-mode: screen; opacity: .7; stroke-width: 0px;"/>
            <path d="m312.83,1278.59c-1.21-2.71-2.78-5.16-4.61-7.46-9.54-12.06-28.98-4.5-38.19,3.51-5.82,5.06-10.52,11.81-12.31,19.38-1.21,5.16-1.26,14.14,3.52,17.94,2.28,1.82,4.37,4.13,7.03,5.34,11.3,5.14,23.98.6,32.9-7.14,7.92-6.9,16.56-20.57,11.66-31.57Z" style="mix-blend-mode: screen; opacity: .7; stroke-width: 0px;"/>
          </g>
        </g>
        <g id="bot">
          <path d="m600.71,976.67c1.64,21.32,2.81,43.12,3.13,65.21,2.25,157.07,9.92,249.51,62.5,278.38,52.59,28.89,479.17,24.35,920.26,15.66,441.08-8.67,578.3-58.25,597.14-119.87,9.39-30.8,16.41-156.84,20.87-286.04-137.32,15.68-408.3,41.55-814.79,57.94-441.16,17.78-685.77.17-789.11-11.28Z" style="stroke: #5e2c00; stroke-linecap: round; stroke-linejoin: round; stroke-width: 16.94px;"/>
          <g>
            <path d="m1436.38,1228.34c-19.19,9.81-8.65,40.54,15.17,28.36,19.2-9.81,8.68-40.54-15.17-28.36Z" style="mix-blend-mode: multiply; opacity: .6; stroke-width: 0px;"/>
            <path d="m1913.86,1122.09c-19.2,9.82-8.67,40.54,15.17,28.36,19.2-9.79,8.67-40.52-15.17-28.36Z" style="mix-blend-mode: multiply; opacity: .6; stroke-width: 0px;"/>
            <path d="m1898.84,986.03c-12.85,6.55-5.81,27.14,10.15,18.99,12.87-6.57,5.81-27.14-10.15-18.99Z" style="mix-blend-mode: multiply; opacity: .6; stroke-width: 0px;"/>
            <path d="m1644.65,1033.07c-11.78,6.02-5.33,24.84,9.29,17.38,11.79-6,5.31-24.83-9.29-17.38Z" style="mix-blend-mode: multiply; opacity: .6; stroke-width: 0px;"/>
            <path d="m758.41,1020.51c-19.19,9.82-8.68,40.55,15.17,28.36,19.2-9.77,8.68-40.52-15.17-28.36Z" style="mix-blend-mode: multiply; opacity: .6; stroke-width: 0px;"/>
            <path d="m964.67,1187.99c-14.59,7.46-6.6,30.8,11.51,21.55,14.6-7.44,6.58-30.8-11.51-21.55Z" style="mix-blend-mode: multiply; opacity: .6; stroke-width: 0px;"/>
            <path d="m1773.74,1243.74c-8.07,4.13-3.67,17.07,6.38,11.94,8.09-4.12,3.64-17.05-6.38-11.94Z" style="mix-blend-mode: multiply; opacity: .6; stroke-width: 0px;"/>
            <path d="m1153.34,1316.54c-8.07,4.12-3.66,17.05,6.37,11.91,8.09-4.12,3.66-17.04-6.37-11.91Z" style="mix-blend-mode: multiply; opacity: .6; stroke-width: 0px;"/>
            <path d="m731.25,1190.85c-10.7,5.47-4.85,22.59,8.43,15.83,10.73-5.49,4.86-22.63-8.43-15.83Z" style="mix-blend-mode: multiply; opacity: .6; stroke-width: 0px;"/>
            <path d="m2066.46,1203.76c-10.7,5.47-4.85,22.61,8.45,15.81,10.72-5.46,4.85-22.59-8.45-15.81Z" style="mix-blend-mode: multiply; opacity: .6; stroke-width: 0px;"/>
            <path d="m1393.77,1026.8c-10.7,5.47-4.85,22.61,8.45,15.83,10.72-5.47,4.85-22.61-8.45-15.83Z" style="mix-blend-mode: multiply; opacity: .6; stroke-width: 0px;"/>
            <path d="m1548.39,1274.67c-5.38,2.73-2.43,11.33,4.23,7.92,5.36-2.76,2.43-11.33-4.23-7.92Z" style="mix-blend-mode: multiply; opacity: .6; stroke-width: 0px;"/>
            <path d="m1205.96,1217.18c-5.38,2.75-2.43,11.33,4.23,7.94,5.36-2.75,2.43-11.31-4.23-7.94Z" style="mix-blend-mode: multiply; opacity: .6; stroke-width: 0px;"/>
            <path d="m863.4,1124.1c-5.36,2.71-2.43,11.31,4.23,7.92,5.36-2.75,2.41-11.33-4.23-7.92Z" style="mix-blend-mode: multiply; opacity: .6; stroke-width: 0px;"/>
            <path d="m637.2,1128.84c-5.38,2.73-2.45,11.33,4.22,7.92,5.38-2.75,2.41-11.33-4.22-7.92Z" style="mix-blend-mode: multiply; opacity: .6; stroke-width: 0px;"/>
            <path d="m902.96,1311.38c-5.38,2.75-2.45,11.33,4.23,7.92,5.36-2.73,2.41-11.31-4.23-7.92Z" style="mix-blend-mode: multiply; opacity: .6; stroke-width: 0px;"/>
            <path d="m1611.67,1166.65c-5.37,2.75-2.45,11.33,4.22,7.92,5.38-2.75,2.42-11.31-4.22-7.92Z" style="mix-blend-mode: multiply; opacity: .6; stroke-width: 0px;"/>
            <path d="m1946.04,1255.55c-5.37,2.73-2.43,11.33,4.22,7.92,5.36-2.75,2.45-11.33-4.22-7.92Z" style="mix-blend-mode: multiply; opacity: .6; stroke-width: 0px;"/>
            <path d="m1324.84,1279.4c-5.38,2.75-2.43,11.33,4.22,7.94,5.38-2.76,2.45-11.33-4.22-7.94Z" style="mix-blend-mode: multiply; opacity: .6; stroke-width: 0px;"/>
            <path d="m2109.99,1037.8c-5.36,2.75-2.45,11.33,4.23,7.92,5.36-2.75,2.41-11.33-4.23-7.92Z" style="mix-blend-mode: multiply; opacity: .6; stroke-width: 0px;"/>
            <path d="m1006.58,1038.89c-8.09,4.12-3.67,17.05,6.37,11.94,8.09-4.13,3.66-17.07-6.37-11.94Z" style="mix-blend-mode: multiply; opacity: .6; stroke-width: 0px;"/>
            <path d="m1232.09,1118.79c-12.52,6.4-5.64,26.48,9.92,18.52,12.54-6.4,5.64-26.48-9.92-18.52Z" style="mix-blend-mode: multiply; opacity: .6; stroke-width: 0px;"/>
          </g>
          <path d="m724.92,987c113.84,120.01,319.81,234.14,691.69,234.14s563.33-135.01,668.19-278.58c-153.2,14.8-384.38,32.85-694.98,45.38-315.35,12.7-530.22,7.33-664.9-.94Z" style="fill: none; stroke-width: 0px;"/>
          <path d="m1416.61,1221.15c-371.88,0-577.85-114.14-691.69-234.14-53.74-3.31-94.74-7.08-124.21-10.34,1.64,21.32,2.81,43.12,3.13,65.21,2.25,157.07,9.92,249.51,62.5,278.38,52.59,28.89,479.17,24.35,920.26,15.66,441.08-8.67,578.3-58.25,597.14-119.87,9.39-30.8,16.41-156.84,20.87-286.04-32.42,3.71-72.52,7.99-119.81,12.55-104.86,143.57-301.03,278.58-668.19,278.58Z" style="mix-blend-mode: multiply; opacity: .7; stroke-width: 0px;"/>
        </g>
      </g>
    </g>
    <g id="mid" data-name="Layer 4">
      <path d="m1847.13,736.73c-281,15.89-590.04,30.37-968.19,30.37-167.62,0-254.48,17.2-300.55,13.76,4.28,48.99,16.57,118.78,22.48,195.82,103.34,11.44,347.95,29.06,789.11,11.28,406.49-16.39,677.47-42.26,814.79-57.94,2.76-79.78,4.52-160.69,5.29-221.21-76.91,13.99-193.22,18.33-362.93,27.92Z" style="stroke: #5e2c00; stroke-linecap: round; stroke-linejoin: round; stroke-width: 16.94px;"/>
      <path d="m578.39,780.85c4.28,48.99,16.57,118.78,22.48,195.82,29.47,3.26,70.47,7.03,124.21,10.34-71.38-75.22-106.54-152.72-123.61-205.89-8.6.26-16.32.23-23.07-.26Z" style="mix-blend-mode: multiply; opacity: .7; stroke-width: 0px;"/>
      <path d="m2084.96,942.57c47.28-4.56,87.39-8.85,119.81-12.55,2.76-79.78,4.52-160.69,5.29-221.21-6.4,1.16-13.18,2.25-20.13,3.27-15.13,64.01-45.22,148.64-104.97,230.49Z" style="mix-blend-mode: multiply; opacity: .7; stroke-width: 0px;"/>
    </g>
<g id="top">
    <g id="glaze" data-name="Layer 3">
      <path d="m879.33,765.44c378.15,0,687.19-14.47,968.19-30.37,169.71-9.59,286.02-13.93,362.93-27.92.46-37.76.55-67.63.21-84.17-.12-5.95-1.97-12.4-5.03-19.22-47.7,30.43-411.36,68.95-850.96,78.41-479.58,10.32-768.4,29.95-768.4,29.95-9.63,9.28-10.45,33.31-7.49,67.07,46.06,3.44,132.92-13.76,300.55-13.76Z" style="stroke: #5e2c00; stroke-linecap: round; stroke-linejoin: round; stroke-width: 16.94px;"/>
      <path d="m2205.64,603.77c-41.2-91.38-329.95-251.34-375.2-266.61-48.62-16.39-1144.63,278.96-1244.16,374.97,0,0,288.82-19.63,768.4-29.95,439.61-9.46,803.26-47.98,850.96-78.41Z" style="stroke: #5e2c00; stroke-linecap: round; stroke-linejoin: round; stroke-width: 16.94px;"/>
      <path d="m1830.44,337.16c-48.62-16.39-1144.63,278.96-1244.16,374.97,0,0,288.82-19.63,768.4-29.95,439.61-9.46,803.26-47.98,850.96-78.41-41.2-91.38-329.95-251.34-375.2-266.61Zm-340.92,279.31c-1092.45,95.66-545.52-36.06-225.89-125.27,441.51-123.22,546.68-153.68,685.06-64.2,138.4,89.48,80.1,142.25-459.17,189.47Z" style="mix-blend-mode: multiply; opacity: .5; stroke-width: 0px;"/>
      <g>
        <path d="m1351.78,484.67c-99.98,29.17-205.35,39.35-304.33,69.22-21.25,6.42-25.22,44.44,1.16,34.81,45.45-16.56,94.87-22.34,141.29-36.1,56.73-16.84,108.2-35.43,162.2-58.98,4.76-2.08,7.03-11.08-.31-8.95Z" style="mix-blend-mode: screen; opacity: .6; stroke-width: 0px;"/>
        <path d="m996.11,585.05c-.17-.28-.36-.55-.51-.84-3.06-4.85-12.16-3.36-15.94-.68-.1.07-.16.13-.25.2-7.1,2.65-12.92,8.91-12.85,16.94.03,2.76.28,6.15,2.56,8.1,7.67,6.55,19.22,2.43,24.66-5.36.21-.28.4-.6.63-.88,3.95-5.66,5.51-11.43,1.7-17.48Z" style="mix-blend-mode: screen; opacity: .6; stroke-width: 0px;"/>
      </g>
    </g>
    <g id="Cherry" data-name="Layer 2">
      <path d="m1567.28,513.98c267.5,47.4,338.02-357.44,43.45-354.94-218.6,1.9-311,307.54-43.45,354.94" style="stroke: #5e2c00; stroke-linecap: round; stroke-linejoin: round; stroke-width: 16.94px;"/>
      <path d="m1567.28,513.98c236.41,41.89,318.8-269.27,131.42-340.45,78.76,40.22,84.2,156.99-45.32,188.53" style="mix-blend-mode: multiply; stroke-width: 0px;"/>
      <path d="m1653.38,362.05c-184.26,44.82-226.52-129.6-89.34-186.26,25.7-10.6,49.42-15.36,70.94-15.88-7.86-.56-15.84-.94-24.25-.88-218.6,1.9-311,307.54-43.45,354.94" style="mix-blend-mode: multiply; stroke-width: 0px;"/>
      <path d="m1554.74,198.47s8.04,5.33,20.09,11.05c5.97,2.98,13.15,5.66,20.71,8.09,7.69,2.05,15.84,3.99,24.18,4.2,8.3.83,16.6-.25,24.56-1.14,3.87-.96,7.72-1.72,11.41-2.43,3.66-.83,7.01-2.15,10.27-2.98,6.58-1.62,11.74-4.1,15.7-5.28,3.9-1.29,6.28-1.93,6.28-1.93,0,0-1.52,1.8-4.45,4.78-3.03,2.81-7.05,7.53-13.3,11.18-3.04,1.92-6.24,4.38-10.07,6.07-3.85,1.67-7.94,3.57-12.32,5.08-4.53.99-9.2,2.5-14.11,3.09-4.93.13-9.97.98-15.02.46-5.04-.5-10.06-1.06-14.84-2.43-4.9-.88-9.29-3.09-13.63-4.78-8.42-4.07-15.63-8.88-20.87-14.01-10.87-9.84-14.6-19.02-14.6-19.02Z" style="stroke-width: 0px;"/>
      <path id="stem" d="m1630.18,230.34s66.54-148.54-33.59-221.87l-21.93,24.96c6.17,9.79,85.72,53.62,40.21,197.74l15.31-.83Z" style="stroke: #5e2c00; stroke-linecap: round; stroke-linejoin: round; stroke-width: 16.94px;"/>
      <path d="m1481.64,298.07c4.17-26.91,15.66-52.71,31.41-74.74,3.85-5.41-2.18-9.61-6.75-5.33-43.43,40.92-101.27,158.36-36.5,203.89" style="mix-blend-mode: screen; stroke-width: 0px;"/>
      <g>
        <path d="m1469.8,421.89c16.54,11.61,45.21-21.77,26.35-35.33-23.49-16.87-18.33-63.62-14.51-88.5" style="mix-blend-mode: screen; stroke-width: 0px;"/>
        <path d="m1539,421.73c-19.4,0-34.15,35.28-8.32,35.28,19.4,0,34.14-35.28,8.32-35.28Z" style="mix-blend-mode: screen; stroke-width: 0px;"/>
      </g>
    </g>
  </g>

</svg>