<?xml version="1.0" encoding="UTF-8"?>
<svg xmlns="http://www.w3.org/2000/svg" xmlns:xlink="http://www.w3.org/1999/xlink" viewBox="0 0 764 79.4">
  <defs>
    <filter id="drop-shadow-1" filterUnits="userSpaceOnUse">
      <feOffset dx="2" dy="0"/>
      <feGaussianBlur result="blur" stdDeviation="0"/>
      <feFlood flood-color="#231f20" flood-opacity="1"/>
      <feComposite in2="blur" operator="in"/>
      <feComposite in="SourceGraphic"/>
    </filter>
  </defs>
  <g id="Layer_1" data-name="Layer 1">
    <rect x="2" y="2" width="760" height="75.4" rx="12" ry="12" style="fill: #1e1e1e; stroke: #000; stroke-miterlimit: 10; stroke-width: 4px;"/>
  </g>
  <g id="Layer_2" data-name="Layer 2" style="filter: url(#drop-shadow-1);">
    <path d="m24.72,46.43l27.63-14.33v4.57l-19.57,9.73,19.57,9.85,1,4.51-28.63-14.33Z" style="fill: #fff; stroke-width: 0px;"/>
    <path d="m91.35,60.29c-3.06,1.14-5.8,1.71-8.23,1.71-3.2,0-6.14-.86-8.83-2.57s-4.78-4.26-6.28-7.65c-1.49-3.38-2.24-7.21-2.24-11.48s.74-8.04,2.21-11.42,3.56-5.93,6.25-7.67,5.65-2.61,8.89-2.61c2.43,0,5.17.57,8.23,1.7v4.85c-2.83-1.64-5.64-2.47-8.44-2.47-2.11,0-4.04.72-5.79,2.16-1.75,1.44-3.16,3.56-4.23,6.35-1.07,2.79-1.61,5.82-1.61,9.09s.55,6.39,1.66,9.21c1.11,2.82,2.52,4.92,4.25,6.32,1.72,1.4,3.63,2.1,5.72,2.1,2.78,0,5.59-.82,8.44-2.45v4.82Z" style="fill: #af2e54; stroke-width: 0px;"/>
    <path d="m99.15,60.76V18.21h4.9v19.54c1.41-2.27,3.1-4.04,5.09-5.33,1.99-1.28,3.97-1.92,5.96-1.92,1.67,0,3.19.43,4.57,1.28,1.38.85,2.34,1.89,2.89,3.1.44.93.74,1.92.9,2.97.16,1.05.24,3.2.24,6.47v16.45h-4.9v-17.06c0-2.83-.14-4.7-.41-5.6-.27-.91-.77-1.65-1.5-2.23-.73-.58-1.53-.87-2.39-.87-1.72,0-3.57.82-5.55,2.45s-3.61,3.68-4.89,6.14v17.16h-4.9Z" style="fill: #fff; stroke-width: 0px;"/>
    <path d="m150.92,54.18c-1.5,2.45-3.29,4.3-5.39,5.54-2.1,1.24-4.03,1.87-5.79,1.87-2.46,0-4.67-1.06-6.63-3.19-1.96-2.13-2.94-5.35-2.94-9.68,0-3.41.65-6.46,1.95-9.14,1.3-2.68,3.04-4.8,5.23-6.35,2.18-1.56,4.88-2.33,8.1-2.33.93,0,2.34.1,4.21.29.28.04.7.08,1.26.13h4.92v20.8c0,3.55.38,6.44,1.13,8.65h-5.12c-.4-1.61-.71-3.81-.94-6.59Zm.02-5.87v-12.65c-1.74-.46-3.36-.69-4.86-.69-3.03,0-5.55,1.17-7.57,3.51s-3.02,5.53-3.02,9.56c0,2.92.55,5.12,1.65,6.61,1.1,1.49,2.35,2.23,3.76,2.23,1.53,0,3.22-.77,5.07-2.32,1.85-1.55,3.5-3.63,4.97-6.26Z" style="fill: #fff; stroke-width: 0px;"/>
    <path d="m166.47,60.76v-29.45h4.9v6.43c1.53-2.43,3.28-4.24,5.26-5.44,1.98-1.2,4.18-1.81,6.6-1.81,1.78,0,3.55.27,5.33.82v10.63h-4.72v-6.72c-.83-.14-1.48-.21-1.95-.21-1.83,0-3.62.72-5.38,2.16-1.76,1.44-3.47,3.6-5.14,6.49v17.11h-4.9Z" style="fill: #fff; stroke-width: 0px;"/>
    <path d="m204.28,60.76V22.3h-8.81v-4.09h13.71v38.47h9.2v4.09h-14.11Z" style="fill: #fff; stroke-width: 0px;"/>
    <path d="m253.27,58.81c-3.92,1.85-7.63,2.78-11.13,2.78-2.65,0-5.03-.66-7.12-1.98-2.09-1.32-3.77-3.2-5.02-5.65-1.26-2.45-1.89-5.07-1.89-7.86s.6-5.27,1.79-7.75c1.2-2.48,2.86-4.4,5.01-5.78,2.14-1.38,4.54-2.07,7.17-2.07,3.5,0,6.31,1.25,8.42,3.74,2.12,2.49,3.18,6.34,3.18,11.53v1.05h-20.3c0,2.04.43,3.91,1.28,5.6.85,1.69,1.97,2.96,3.36,3.81,1.39.85,2.97,1.27,4.75,1.27,3.16,0,6.66-1.06,10.49-3.17v4.48Zm-19.59-15.65h14.69v-.71c0-2.4-.59-4.31-1.77-5.73-1.18-1.42-2.75-2.13-4.72-2.13s-3.7.72-5.15,2.17-2.47,3.58-3.05,6.4Z" style="fill: #fff; stroke-width: 0px;"/>
    <path d="m261.18,60.76v-29.45h4.9v6.43c1.41-2.27,3.1-4.04,5.09-5.33,1.99-1.28,3.97-1.92,5.96-1.92,1.74,0,3.32.46,4.75,1.38s2.42,2.13,2.99,3.63c.57,1.49.86,4.43.86,8.81v16.45h-4.9v-17.06c0-2.83-.14-4.7-.41-5.6-.27-.91-.77-1.65-1.5-2.23-.73-.58-1.53-.87-2.39-.87-1.72,0-3.57.82-5.55,2.45s-3.61,3.68-4.89,6.14v17.16h-4.9Z" style="fill: #fff; stroke-width: 0px;"/>
    <path d="m318.08,58.81c-3.92,1.85-7.63,2.78-11.13,2.78-2.65,0-5.03-.66-7.12-1.98-2.09-1.32-3.77-3.2-5.02-5.65-1.26-2.45-1.88-5.07-1.88-7.86s.6-5.27,1.79-7.75c1.2-2.48,2.87-4.4,5.01-5.78,2.14-1.38,4.54-2.07,7.17-2.07,3.5,0,6.31,1.25,8.42,3.74s3.18,6.34,3.18,11.53v1.05h-20.3c0,2.04.43,3.91,1.28,5.6.85,1.69,1.97,2.96,3.36,3.81s2.97,1.27,4.75,1.27c3.16,0,6.66-1.06,10.49-3.17v4.48Zm-19.59-15.65h14.69v-.71c0-2.4-.59-4.31-1.77-5.73-1.18-1.42-2.75-2.13-4.72-2.13s-3.71.72-5.15,2.17c-1.45,1.45-2.47,3.58-3.05,6.4Z" style="fill: #fff; stroke-width: 0px;"/>
    <path d="m358.45,60.76V19.84h5.33v20.07l15.18-20.07h5.66l-14.67,19.43,16.73,21.5h-6.67l-16.23-20.87v20.87h-5.33Z" style="fill: #0c9b81; stroke-width: 0px;"/>
    <path d="m402.92,61.58c-4.21,0-7.59-1.47-10.12-4.42-2.53-2.94-3.79-6.66-3.79-11.14s1.26-8.19,3.79-11.13c2.53-2.94,5.9-4.4,10.12-4.4s7.56,1.47,10.09,4.4c2.53,2.94,3.79,6.64,3.79,11.13s-1.26,8.2-3.79,11.14c-2.53,2.94-5.89,4.42-10.09,4.42Zm0-4.09c2.61,0,4.69-1.02,6.24-3.06,1.54-2.04,2.32-4.84,2.32-8.41s-.77-6.35-2.32-8.39c-1.54-2.04-3.62-3.06-6.24-3.06s-4.72,1.02-6.27,3.06c-1.54,2.04-2.32,4.83-2.32,8.39s.77,6.37,2.32,8.41c1.54,2.04,3.63,3.06,6.27,3.06Z" style="fill: #fff; stroke-width: 0px;"/>
    <path d="m447.99,59.92c-3.29,1.11-6.42,1.66-9.39,1.66s-5.58-.68-7.87-2.04c-2.29-1.36-4.08-3.21-5.37-5.54s-1.92-4.98-1.92-7.95c0-4.46,1.45-8.17,4.36-11.13s6.42-4.43,10.53-4.43c3.04,0,6.26.57,9.65,1.71v4.72c-3.43-1.56-6.5-2.35-9.2-2.35-1.79,0-3.48.44-5.06,1.33-1.58.89-2.8,2.27-3.67,4.15-.86,1.88-1.29,3.81-1.29,5.8,0,2.65.83,5.19,2.49,7.59,1.66,2.41,4.27,3.61,7.82,3.61,1.07,0,2.13-.07,3.16-.22s2.95-.7,5.75-1.65v4.72Z" style="fill: #fff; stroke-width: 0px;"/>
    <path d="m455.61,60.76V18.21h4.9v19.54c1.41-2.27,3.1-4.04,5.09-5.33,1.99-1.28,3.97-1.92,5.96-1.92,1.67,0,3.19.43,4.57,1.28,1.38.85,2.34,1.89,2.89,3.1.44.93.74,1.92.9,2.97.16,1.05.24,3.2.24,6.47v16.45h-4.9v-17.06c0-2.83-.14-4.7-.41-5.6-.27-.91-.77-1.65-1.5-2.23s-1.52-.87-2.39-.87c-1.72,0-3.57.82-5.55,2.45-1.98,1.63-3.61,3.68-4.89,6.14v17.16h-4.9Z" style="fill: #fff; stroke-width: 0px;"/>
    <path d="m507.38,54.18c-1.5,2.45-3.29,4.3-5.39,5.54-2.1,1.24-4.03,1.87-5.79,1.87-2.46,0-4.67-1.06-6.63-3.19-1.96-2.13-2.94-5.35-2.94-9.68,0-3.41.65-6.46,1.95-9.14,1.3-2.68,3.04-4.8,5.23-6.35,2.18-1.56,4.88-2.33,8.1-2.33.93,0,2.34.1,4.21.29.28.04.7.08,1.26.13h4.92v20.8c0,3.55.38,6.44,1.13,8.65h-5.12c-.4-1.61-.71-3.81-.94-6.59Zm.02-5.87v-12.65c-1.74-.46-3.36-.69-4.86-.69-3.03,0-5.55,1.17-7.57,3.51-2.02,2.34-3.02,5.53-3.02,9.56,0,2.92.55,5.12,1.65,6.61,1.1,1.49,2.36,2.23,3.76,2.23,1.53,0,3.22-.77,5.07-2.32,1.85-1.55,3.5-3.63,4.97-6.26Z" style="fill: #fff; stroke-width: 0px;"/>
    <path d="m520.42,60.76v-29.45h4.9v6.43c1.41-2.27,3.1-4.04,5.09-5.33,1.99-1.28,3.97-1.92,5.96-1.92,1.74,0,3.32.46,4.75,1.38s2.42,2.13,2.99,3.63c.57,1.49.86,4.43.86,8.81v16.45h-4.9v-17.06c0-2.83-.14-4.7-.41-5.6-.27-.91-.77-1.65-1.5-2.23s-1.52-.87-2.39-.87c-1.72,0-3.57.82-5.55,2.45-1.98,1.63-3.61,3.68-4.89,6.14v17.16h-4.9Z" style="fill: #fff; stroke-width: 0px;"/>
    <path d="m553.17,59.21v-5.2c1.97,1.28,4.05,2.19,6.25,2.7,2.2.52,4.06.78,5.59.78,2.48,0,4.26-.4,5.35-1.2,1.09-.8,1.63-1.8,1.63-2.99,0-.79-.25-1.47-.76-2.03-.51-.56-1.78-1.26-3.8-2.08l-1.69-.69-3.4-1.35c-3.66-1.42-5.96-2.74-6.91-3.95-.97-1.2-1.45-2.65-1.45-4.38,0-2.43.94-4.42,2.81-5.99,1.87-1.56,4.92-2.35,9.12-2.35,3.15,0,6.13.46,8.95,1.37v4.46c-3.24-1.16-6.29-1.74-9.14-1.74-2.08,0-3.7.37-4.87,1.09-1.17.73-1.76,1.64-1.76,2.73s.51,1.9,1.53,2.53c1,.63,2.64,1.36,4.91,2.19l3.33,1.21c3.04,1.11,5.18,2.31,6.41,3.61,1.23,1.3,1.84,2.93,1.84,4.88,0,2.55-.98,4.64-2.94,6.29-1.96,1.64-5.09,2.47-9.4,2.47-3.76,0-7.63-.79-11.6-2.37Z" style="fill: #fff; stroke-width: 0px;"/>
    <path d="m586.55,60.76V18.21h4.9v26.74l14.16-13.63h6.49l-14.02,13.5,14.44,15.95h-6.75l-14.32-15.82v15.82h-4.9Z" style="fill: #fff; stroke-width: 0px;"/>
    <path d="m625.89,60.76v-25.36h-8.17v-4.09h13.08v25.37h8.2v4.09h-13.1Zm-.79-40.09c0-1.1.38-1.93,1.13-2.47.75-.54,1.46-.81,2.13-.81s1.4.27,2.15.81c.75.54,1.13,1.37,1.13,2.47s-.38,1.9-1.13,2.44c-.75.54-1.47.81-2.15.81s-1.37-.27-2.13-.81c-.75-.54-1.13-1.36-1.13-2.44Z" style="fill: #fff; stroke-width: 0px;"/>
    <line x1="679.24" y1="62.01" x2="705.24" y2="18.63" style="fill: #fff; stroke-width: 0px;"/>
    <path d="m741.27,46.43l-28.63,14.33v-4.55l19.57-9.75-19.57-9.85v-4.51l28.63,14.33Z" style="fill: #fff; stroke-width: 0px;"/>
    <path d="m700.68,18.59h4.67l-25.85,43.37h-4.82" style="fill: #fff; stroke-width: 0px;"/>
  </g>
</svg>